# xmcd
#
# Track frame offsets: 
#        182
#        14112
#        48432
#        65210
#        100295
#        139892
#        164030
#        199250
#        214772
#        243622
#        270000
#
# Disc length: 4349 seconds
#
# Revision: 0
# Processed by: cddbd v1.5.1PL0 Copyright (c) Steve Scherf et al.
# Submitted via: ExactAudioCopy v0.95a5
#
DISCID=ad10fb0b
DTITLE=Jimi Henrix - Blues
DYEAR=1994
DGENRE=Blues - Rock
TTITLE0=Hear My Train Comin' (Acoustic)
TTITLE1=Born Under A Bad Sign
TTITLE2=Red House
TTITLE3=Catfish Blues
TTITLE4=Vood Chile Blues
TTITLE5=Mannish Boy
TTITLE6=Once I Had A Woman
TTITLE7=Bleeding Heart
TTITLE8=Jelly 292
TTITLE9=Electric Church Red House
TTITLE10=Hear My Train Comin' (Electric)
EXTD=
EXTT0=
EXTT1=
EXTT2=
EXTT3=
EXTT4=
EXTT5=
EXTT6=
EXTT7=
EXTT8=
EXTT9=
EXTT10=
PLAYORDER=
